<svg xmlns="http://www.w3.org/2000/svg" viewBox="0 0 1240 450" font-family="EB Garamond, Georgia, serif">
  
  <g transform="translate(0,0)">
    <rect x="0" y="0" width="380" height="380" fill="none" stroke="#817d72" stroke-width="2"/>
    <rect x="20.6" y="38.2" width="34.0" height="7.0" rx="2.9" fill="#817d72" opacity="0.28"/>
    <rect x="85.0" y="44.8" width="34.0" height="7.0" rx="2.9" fill="#817d72" opacity="0.28"/>
    <rect x="145.6" y="50.4" width="34.0" height="7.0" rx="2.9" fill="#823363" opacity="1"/>
    <rect x="213.9" y="31.8" width="7.0" height="34.0" rx="2.9" fill="#817d72" opacity="0.28"/>
    <rect x="260.9" y="63.6" width="34.0" height="7.0" rx="2.9" fill="#823363" opacity="1"/>
    <rect x="321.2" y="25.4" width="7.0" height="34.0" rx="2.9" fill="#823363" opacity="1"/>
    <rect x="27.1" y="125.7" width="34.0" height="7.0" rx="2.9" fill="#823363" opacity="1"/>
    <rect x="89.7" y="110.2" width="7.0" height="34.0" rx="2.9" fill="#817d72" opacity="0.28"/>
    <rect x="149.3" y="114.6" width="7.0" height="34.0" rx="2.9" fill="#817d72" opacity="0.28"/>
    <rect x="213.3" y="100.3" width="7.0" height="34.0" rx="2.9" fill="#823363" opacity="1"/>
    <rect x="262.3" y="95.7" width="7.0" height="34.0" rx="2.9" fill="#817d72" opacity="0.28"/>
    <rect x="323.9" y="106.6" width="7.0" height="34.0" rx="2.9" fill="#823363" opacity="1"/>
    <rect x="40.0" y="202.2" width="34.0" height="7.0" rx="2.9" fill="#823363" opacity="1"/>
    <rect x="90.7" y="164.7" width="7.0" height="34.0" rx="2.9" fill="#823363" opacity="1"/>
    <rect x="150.9" y="167.1" width="7.0" height="34.0" rx="2.9" fill="#823363" opacity="1"/>
    <rect x="191.9" y="194.5" width="34.0" height="7.0" rx="2.9" fill="#817d72" opacity="0.28"/>
    <rect x="275.3" y="175.4" width="7.0" height="34.0" rx="2.9" fill="#823363" opacity="1"/>
    <rect x="323.1" y="184.5" width="7.0" height="34.0" rx="2.9" fill="#823363" opacity="1"/>
    <rect x="30.4" y="258.9" width="34.0" height="7.0" rx="2.9" fill="#817d72" opacity="0.28"/>
    <rect x="97.2" y="242.9" width="34.0" height="7.0" rx="2.9" fill="#817d72" opacity="0.28"/>
    <rect x="139.0" y="251.7" width="34.0" height="7.0" rx="2.9" fill="#817d72" opacity="0.28"/>
    <rect x="215.1" y="260.2" width="34.0" height="7.0" rx="2.9" fill="#823363" opacity="1"/>
    <rect x="268.1" y="225.1" width="7.0" height="34.0" rx="2.9" fill="#817d72" opacity="0.28"/>
    <rect x="327.8" y="249.7" width="34.0" height="7.0" rx="2.9" fill="#823363" opacity="1"/>
    <rect x="20.6" y="323.8" width="34.0" height="7.0" rx="2.9" fill="#817d72" opacity="0.28"/>
    <rect x="87.9" y="294.5" width="7.0" height="34.0" rx="2.9" fill="#817d72" opacity="0.28"/>
    <text x="190" y="420" text-anchor="middle" font-size="26" fill="#282722" font-family="EB Garamond, Georgia, serif">“red”</text>
  </g>
  
  <g transform="translate(430,0)">
    <rect x="0" y="0" width="380" height="380" fill="none" stroke="#817d72" stroke-width="2"/>
    <rect x="20.6" y="38.2" width="34.0" height="7.0" rx="2.9" fill="#817d72" opacity="0.28"/>
    <rect x="85.0" y="44.8" width="34.0" height="7.0" rx="2.9" fill="#817d72" opacity="0.28"/>
    <rect x="145.6" y="50.4" width="34.0" height="7.0" rx="2.9" fill="#817d72" opacity="0.28"/>
    <rect x="213.9" y="31.8" width="7.0" height="34.0" rx="2.9" fill="#345a94" opacity="1"/>
    <rect x="260.9" y="63.6" width="34.0" height="7.0" rx="2.9" fill="#817d72" opacity="0.28"/>
    <rect x="321.2" y="25.4" width="7.0" height="34.0" rx="2.9" fill="#345a94" opacity="1"/>
    <rect x="27.1" y="125.7" width="34.0" height="7.0" rx="2.9" fill="#817d72" opacity="0.28"/>
    <rect x="89.7" y="110.2" width="7.0" height="34.0" rx="2.9" fill="#345a94" opacity="1"/>
    <rect x="149.3" y="114.6" width="7.0" height="34.0" rx="2.9" fill="#345a94" opacity="1"/>
    <rect x="213.3" y="100.3" width="7.0" height="34.0" rx="2.9" fill="#345a94" opacity="1"/>
    <rect x="262.3" y="95.7" width="7.0" height="34.0" rx="2.9" fill="#345a94" opacity="1"/>
    <rect x="323.9" y="106.6" width="7.0" height="34.0" rx="2.9" fill="#345a94" opacity="1"/>
    <rect x="40.0" y="202.2" width="34.0" height="7.0" rx="2.9" fill="#817d72" opacity="0.28"/>
    <rect x="90.7" y="164.7" width="7.0" height="34.0" rx="2.9" fill="#345a94" opacity="1"/>
    <rect x="150.9" y="167.1" width="7.0" height="34.0" rx="2.9" fill="#345a94" opacity="1"/>
    <rect x="191.9" y="194.5" width="34.0" height="7.0" rx="2.9" fill="#817d72" opacity="0.28"/>
    <rect x="275.3" y="175.4" width="7.0" height="34.0" rx="2.9" fill="#345a94" opacity="1"/>
    <rect x="323.1" y="184.5" width="7.0" height="34.0" rx="2.9" fill="#345a94" opacity="1"/>
    <rect x="30.4" y="258.9" width="34.0" height="7.0" rx="2.9" fill="#817d72" opacity="0.28"/>
    <rect x="97.2" y="242.9" width="34.0" height="7.0" rx="2.9" fill="#817d72" opacity="0.28"/>
    <rect x="139.0" y="251.7" width="34.0" height="7.0" rx="2.9" fill="#817d72" opacity="0.28"/>
    <rect x="215.1" y="260.2" width="34.0" height="7.0" rx="2.9" fill="#817d72" opacity="0.28"/>
    <rect x="268.1" y="225.1" width="7.0" height="34.0" rx="2.9" fill="#345a94" opacity="1"/>
    <rect x="327.8" y="249.7" width="34.0" height="7.0" rx="2.9" fill="#817d72" opacity="0.28"/>
    <rect x="20.6" y="323.8" width="34.0" height="7.0" rx="2.9" fill="#817d72" opacity="0.28"/>
    <rect x="87.9" y="294.5" width="7.0" height="34.0" rx="2.9" fill="#345a94" opacity="1"/>
    <text x="190" y="420" text-anchor="middle" font-size="26" fill="#282722" font-family="EB Garamond, Georgia, serif">“vertical”</text>
  </g>
  
  <g transform="translate(860,0)">
    <rect x="0" y="0" width="380" height="380" fill="none" stroke="#817d72" stroke-width="2"/>
    <rect x="20.6" y="38.2" width="34.0" height="7.0" rx="2.9" fill="#817d72" opacity="0.22"/>
    <rect x="85.0" y="44.8" width="34.0" height="7.0" rx="2.9" fill="#817d72" opacity="0.22"/>
    <rect x="145.6" y="50.4" width="34.0" height="7.0" rx="2.9" fill="#817d72" opacity="0.22"/>
    <rect x="213.9" y="31.8" width="7.0" height="34.0" rx="2.9" fill="#817d72" opacity="0.22"/>
    <rect x="260.9" y="63.6" width="34.0" height="7.0" rx="2.9" fill="#817d72" opacity="0.22"/>
    <rect x="321.2" y="25.4" width="7.0" height="34.0" rx="2.9" fill="#c7a900" opacity="1"/>
    <rect x="27.1" y="125.7" width="34.0" height="7.0" rx="2.9" fill="#817d72" opacity="0.22"/>
    <rect x="89.7" y="110.2" width="7.0" height="34.0" rx="2.9" fill="#817d72" opacity="0.22"/>
    <rect x="149.3" y="114.6" width="7.0" height="34.0" rx="2.9" fill="#817d72" opacity="0.22"/>
    <rect x="213.3" y="100.3" width="7.0" height="34.0" rx="2.9" fill="#c7a900" opacity="1"/>
    <rect x="262.3" y="95.7" width="7.0" height="34.0" rx="2.9" fill="#817d72" opacity="0.22"/>
    <rect x="323.9" y="106.6" width="7.0" height="34.0" rx="2.9" fill="#c7a900" opacity="1"/>
    <rect x="40.0" y="202.2" width="34.0" height="7.0" rx="2.9" fill="#817d72" opacity="0.22"/>
    <rect x="90.7" y="164.7" width="7.0" height="34.0" rx="2.9" fill="#c7a900" opacity="1"/>
    <rect x="150.9" y="167.1" width="7.0" height="34.0" rx="2.9" fill="#c7a900" opacity="1"/>
    <rect x="191.9" y="194.5" width="34.0" height="7.0" rx="2.9" fill="#817d72" opacity="0.22"/>
    <rect x="275.3" y="175.4" width="7.0" height="34.0" rx="2.9" fill="#c7a900" opacity="1"/>
    <rect x="323.1" y="184.5" width="7.0" height="34.0" rx="2.9" fill="#c7a900" opacity="1"/>
    <rect x="30.4" y="258.9" width="34.0" height="7.0" rx="2.9" fill="#817d72" opacity="0.22"/>
    <rect x="97.2" y="242.9" width="34.0" height="7.0" rx="2.9" fill="#817d72" opacity="0.22"/>
    <rect x="139.0" y="251.7" width="34.0" height="7.0" rx="2.9" fill="#817d72" opacity="0.22"/>
    <rect x="215.1" y="260.2" width="34.0" height="7.0" rx="2.9" fill="#817d72" opacity="0.22"/>
    <rect x="268.1" y="225.1" width="7.0" height="34.0" rx="2.9" fill="#817d72" opacity="0.22"/>
    <rect x="327.8" y="249.7" width="34.0" height="7.0" rx="2.9" fill="#817d72" opacity="0.22"/>
    <rect x="20.6" y="323.8" width="34.0" height="7.0" rx="2.9" fill="#817d72" opacity="0.22"/>
    <rect x="87.9" y="294.5" width="7.0" height="34.0" rx="2.9" fill="#817d72" opacity="0.22"/>
    <text x="190" y="420" text-anchor="middle" font-size="26" fill="#282722" font-family="EB Garamond, Georgia, serif">“red” AND “vertical”</text>
  </g>
</svg>
